<?xml version="1.0" encoding="utf-8"?>
<!-- Generator: Adobe Illustrator 23.1.0, SVG Export Plug-In . SVG Version: 6.00 Build 0)  -->
<svg version="1.1" id="Capa_1" xmlns="http://www.w3.org/2000/svg" xmlns:xlink="http://www.w3.org/1999/xlink" x="0px" y="0px"
	 viewBox="0 0 121 104" style="enable-background:new 0 0 121 104;" xml:space="preserve">
<style type="text/css">
	.st0{fill:#BCBCBC;}
	.st1{fill:#FFFFFF;}
	.st2{fill:#FFFFFE;}
	.st3{fill:#FDFEFC;}
	.st4{fill:#6E6D6D;}
	.st5{fill:#7C7B7B;}
</style>
<path class="st0" d="M106.3,52c0,25.3-20.5,45.8-45.8,45.8S14.6,77.3,14.6,52S35.2,6.2,60.5,6.2S106.3,26.7,106.3,52z"/>
<image style="overflow:visible;" width="241" height="247" xlink:href="perfil_icon.png"  transform="matrix(0.3842 0 0 0.3842 136.6 52)">
</image>
<g>
	<path class="st1" d="M27.7-70.4c-3.3,0-6.6,0-10,0c-0.5,0-0.4,0-0.4-0.5c0.1-1.2,0.3-2.4,0.4-3.6c0.1-1.1,0.2-2.2,0.4-3.3
		c0.1-0.5,0.2-1,0.4-1.5c0.6-1.4,1.7-2.2,3.1-2.4c0.8-0.1,1.6-0.1,2.3,0c0.9,0,1.8,0.1,2.7,0.1c1.4,0,2.8,0,4.3,0c0.6,0,1.3,0,1.9,0
		c0.5,0,0.9,0.1,1.4,0.1c1.5,0.3,2.4,1.2,2.8,2.7c0.1,0.5,0.2,0.9,0.2,1.4c0.1,1.6,0.3,3.1,0.5,4.7c0.1,0.7,0.2,1.5,0.3,2.2
		c0,0.2,0,0.2-0.2,0.2c-0.1,0-0.2,0-0.3,0C34.2-70.4,31-70.4,27.7-70.4z"/>
	<path class="st1" d="M60-70.4c-3.3,0-6.6,0-10,0c-0.4,0-0.4,0.1-0.4-0.4c0.2-1.6,0.4-3.3,0.6-4.9c0.1-0.9,0.1-1.8,0.4-2.7
		c0.1-0.5,0.3-0.9,0.5-1.3c0.6-1.2,1.6-1.8,2.9-2c0.7-0.1,1.5-0.1,2.3,0c0.9,0.1,1.8,0.1,2.7,0.1c1.4,0,2.9,0,4.3,0
		c0.7,0,1.4-0.1,2,0c0.6,0,1.2,0.1,1.8,0.3c1,0.3,1.7,1,2.1,2c0.2,0.5,0.3,1.1,0.4,1.7c0.1,2,0.4,3.9,0.7,5.8
		c0.1,0.4,0.1,0.8,0.2,1.2c0,0.3,0,0.3-0.2,0.3c-0.1,0-0.2,0-0.3,0C66.5-70.4,63.2-70.4,60-70.4z"/>
	<path class="st1" d="M45.1-105.5c-3.3,0-6.6,0-9.9,0c-0.5,0-0.5,0-0.4-0.5c0.1-1.1,0.3-2.3,0.4-3.4c0.1-0.8,0.2-1.7,0.2-2.5
		c0.1-0.8,0.2-1.5,0.4-2.2c0.5-1.6,1.6-2.4,3.2-2.7c0.8-0.1,1.5-0.1,2.3,0c0.9,0.1,1.8,0.1,2.7,0.1c1.3,0,2.7,0,4,0
		c0.7,0,1.5-0.1,2.2-0.1c0.5,0,1,0.1,1.5,0.2c1.5,0.4,2.3,1.3,2.7,2.8c0.1,0.6,0.2,1.1,0.2,1.7c0.1,1.5,0.3,2.9,0.5,4.4
		c0.1,0.6,0.2,1.3,0.3,1.9c0.1,0.4,0,0.4-0.4,0.4C51.7-105.5,48.4-105.5,45.1-105.5z"/>
	<path class="st2" d="M51.4-124.7c0,2.9-1.8,5.1-4.6,5.9c-1.1,0.3-2.2,0.4-3.4,0.1c-2.5-0.7-4.1-2.4-4.5-4.9c-0.5-2.8,1.1-5.7,4-6.7
		c1-0.3,1.9-0.3,2.9-0.2c1.2,0.2,2.3,0.5,3.3,1.3c1.2,0.9,1.9,2.1,2.1,3.6C51.4-125.3,51.4-124.9,51.4-124.7z"/>
	<path class="st2" d="M59.7-95.5c1.5,0,2.9,0.3,4.1,1.2c1.4,1,2.2,2.3,2.4,4.1c0.1,1.2,0,2.4-0.6,3.5c-0.8,1.6-2.2,2.6-3.9,3.1
		c-1,0.3-2,0.4-3,0.2c-1.9-0.4-3.2-1.4-4.2-3.1c-1.8-3.1-0.2-7.5,3.4-8.6c0.3-0.1,0.5-0.1,0.8-0.2C58.9-95.5,59.3-95.6,59.7-95.5z"
		/>
	<path class="st2" d="M33.9-89.6c0,2.6-1.5,4.7-3.9,5.6c-0.9,0.3-1.8,0.5-2.7,0.5c-1.5,0-2.8-0.5-3.9-1.5c-1.1-1-1.8-2.2-2-3.7
		c-0.4-3.4,1.9-6.3,5-6.7c2-0.3,3.9,0.2,5.5,1.4c1.1,0.8,1.7,2,1.9,3.3C33.9-90.4,33.9-90,33.9-89.6z"/>
	<path class="st3" d="M38.8-102.4c0,0.1-0.1,0.2-0.1,0.2c-0.6,0.8-1.2,1.6-1.8,2.4c-0.9,1.2-1.8,2.5-2.7,3.7
		c-0.2,0.3-0.2,0.3-0.5,0.1c-0.2-0.2-0.5-0.3-0.7-0.5c-0.2-0.2-0.2-0.2,0-0.4c0.5-0.7,1-1.3,1.5-2c1-1.3,2-2.7,3-4
		c0-0.1,0.1-0.1,0.1-0.2c0.1-0.1,0.2-0.2,0.3-0.1c0.3,0.2,0.5,0.4,0.8,0.6C38.7-102.5,38.8-102.5,38.8-102.4z"/>
	<path class="st3" d="M55.9-95.9c-0.1,0-0.1-0.1-0.2-0.2c-0.5-0.6-0.9-1.2-1.4-1.8c-1-1.4-2.1-2.8-3.1-4.2c0,0-0.1-0.1-0.1-0.1
		c-0.2-0.2-0.2-0.2,0.1-0.4c0.2-0.2,0.5-0.3,0.7-0.5c0.2-0.2,0.2-0.2,0.4,0.1c0.9,1.2,1.8,2.4,2.6,3.6c0.6,0.8,1.2,1.6,1.8,2.5
		c0.3,0.3,0.3,0.3-0.1,0.6c-0.2,0.2-0.4,0.3-0.6,0.5C56-95.9,56-95.9,55.9-95.9z"/>
</g>
<g>
	<path class="st4" d="M91.8,67.5c-0.3,0.8-0.6,1.6-1,2.3c-0.7,1.2-1.7,2-3,2.6c-5.2,2.7-10.4,5.3-15.5,8.1
		c-3.9,2.1-7.9,2.6-12.3,1.6c-7.6-1.7-15.2-3.2-22.8-4.8c-0.1,0-0.1,0-0.3,0c0,0.6,0,1.1,0,1.6c0,1.3-0.9,2.2-2.2,2.2
		c-2.8,0-5.5,0-8.3,0c-1.3,0-2.2-0.9-2.2-2.2c0-8.4,0-16.7,0-25.1c0-1.3,0.9-2.2,2.2-2.2c2.8,0,5.5,0,8.3,0c1.3,0,2.1,0.9,2.2,2.2
		c0,0.7,0,1.4,0,2.2c1.4-0.4,2.8-0.7,4.1-1.1c1.9-0.5,3.9-1,5.8-1.4c3.3-0.6,6.6-0.2,9.8,1c3.6,1.4,7.2,2.7,10.8,4.1
		c2.2,0.8,3.6,2.3,4,4.6c0,0.1,0.1,0.2,0.1,0.3c1.6-0.6,3.3-1.1,4.9-1.6c2.1-0.7,4.2-1.4,6.3-2.1c3.9-1.3,8.1,1.1,8.9,5.1
		c0,0.2,0.1,0.4,0.2,0.6C91.8,66.3,91.8,66.9,91.8,67.5z M37.1,73.1c0.2,0.1,0.2,0.1,0.3,0.1c8,1.7,16,3.3,24,5
		c2.9,0.6,5.6,0.5,8.3-0.9c5.6-2.9,11.1-5.8,16.7-8.8c1.1-0.6,1.6-1.8,1.2-2.8c-0.7-1.8-1.6-2.3-3.1-1.8c-5.3,1.8-10.7,3.6-16,5.5
		c-1.3,0.4-2.5,0.6-3.8,0.2c-2.5-0.7-5.1-1.4-7.6-2.1c-1.2-0.3-2.4-0.7-3.7-1c0.4-1.4,0.8-2.7,1.1-4c0.2,0,0.3,0,0.3,0.1
		c3.6,1,7.2,2,10.9,3.1c0.9,0.3,2-0.4,1.8-1.2c-0.2-0.6-0.4-1.2-1.2-1.5c-3.8-1.4-7.6-2.9-11.4-4.3c-2.5-0.9-5-1.2-7.6-0.6
		c-3.3,0.8-6.6,1.7-9.9,2.5c-0.1,0-0.3,0.3-0.3,0.5c0,0.7,0,1.4,0,2C37.1,66.3,37.1,69.7,37.1,73.1z M28.7,56c0,7,0,14,0,21
		c1.4,0,2.8,0,4.1,0c0-7,0-14,0-21C31.4,56,30.1,56,28.7,56z"/>
	<path class="st4" d="M91.8,36.5c-0.2,1-0.3,2.1-0.6,3.1c-2.5,7.9-7.7,12.8-15.9,14.1c-6.8,1.1-12.5-1.6-17-6.8
		c-3-3.5-4.6-7.6-4.4-12.2c0.2-7,3.6-12.4,9.5-16c8.9-5.4,20.3-2.3,25.7,6.9c1.4,2.3,2.2,4.8,2.5,7.5c0,0.1,0.1,0.2,0.1,0.4
		C91.8,34.4,91.8,35.4,91.8,36.5z M72.9,20.2c-8.5,0-14.8,6.3-14.8,14.8c0,8.4,6.3,14.7,14.9,14.7c8.3,0,14.6-6.4,14.6-14.6
		C87.6,26.5,81.3,20.2,72.9,20.2z"/>
	<path class="st1" d="M37.1,73.1c0-3.4,0-6.7,0-10.1c0-0.7,0-1.4,0-2c0-0.2,0.2-0.5,0.3-0.5c3.3-0.9,6.6-1.7,9.9-2.5
		c2.6-0.6,5.1-0.3,7.6,0.6c3.8,1.4,7.6,2.9,11.4,4.3c0.7,0.3,1,0.8,1.2,1.5c0.2,0.8-0.8,1.5-1.8,1.2c-3.6-1-7.2-2-10.9-3.1
		c-0.1,0-0.2,0-0.3-0.1c-0.4,1.3-0.7,2.6-1.1,4c1.3,0.4,2.5,0.7,3.7,1c2.5,0.7,5,1.4,7.6,2.1c1.3,0.3,2.5,0.2,3.8-0.2
		c5.3-1.8,10.7-3.7,16-5.5c1.5-0.5,2.3,0,3.1,1.8c0.4,1.1,0,2.2-1.2,2.8c-5.6,2.9-11.1,5.8-16.7,8.8c-2.7,1.4-5.4,1.6-8.3,0.9
		c-8-1.7-16-3.4-24-5C37.3,73.2,37.2,73.1,37.1,73.1z"/>
	<path class="st1" d="M28.7,56c1.4,0,2.8,0,4.1,0c0,7,0,14,0,21c-1.4,0-2.7,0-4.1,0C28.7,70,28.7,63,28.7,56z"/>
	<path class="st1" d="M72.9,20.2c8.4,0,14.7,6.3,14.7,14.8c0,8.3-6.3,14.6-14.6,14.6c-8.5,0-14.9-6.3-14.9-14.7
		C58.1,26.5,64.4,20.2,72.9,20.2z M70.7,24.4c0.4,1.1-0.3,1.5-1.1,2.1c-2.1,1.5-3.1,4-2.4,6.1c0.8,2.5,3.2,4.3,5.7,4.4
		c1.2,0,1.6,0.5,1.6,1.8c-0.1,1-0.4,1.4-1.3,1.4c-1.2,0.1-1.7-0.2-1.9-1.2c0-0.2-0.2-0.4-0.3-0.4c-1.3,0-2.6,0-3.9,0
		c0,0.4,0,0.7,0.1,1c0.4,1.5,1.2,2.8,2.5,3.7c0.8,0.5,1.5,0.9,1.1,2.1c0.8,0,1.5,0,2.1,0c0.7,0,1.4,0,2.2,0
		c-0.4-1.2,0.3-1.6,1.1-2.1c2.1-1.5,3-4,2.3-6.2c-0.8-2.5-3.2-4.3-5.7-4.4c-1.2,0-1.6-0.5-1.6-1.8c0.1-1,0.4-1.4,1.3-1.4
		c1.2-0.1,1.7,0.2,1.9,1.2c0,0.2,0.2,0.4,0.4,0.4c1.3,0,2.5,0,3.8,0c0.1-0.1,0.1-0.2,0.1-0.2c0-0.1,0-0.2,0-0.3
		c-0.2-1.8-1.1-3.2-2.5-4.2c-0.7-0.5-1.5-0.9-1.1-2.1C73.5,24.4,72.2,24.4,70.7,24.4z"/>
	<path class="st4" d="M70.7,24.4c1.5,0,2.9,0,4.3,0c-0.4,1.2,0.4,1.6,1.1,2.1c1.4,1,2.3,2.4,2.5,4.2c0,0.1,0,0.2,0,0.3
		c0,0,0,0.1-0.1,0.2c-1.2,0-2.5,0-3.8,0c-0.1,0-0.3-0.3-0.4-0.4c-0.2-1-0.7-1.3-1.9-1.2c-0.9,0.1-1.3,0.5-1.3,1.4
		c-0.1,1.3,0.4,1.8,1.6,1.8c2.5,0.1,4.9,1.9,5.7,4.4c0.7,2.2-0.2,4.6-2.3,6.2c-0.8,0.5-1.5,0.9-1.1,2.1c-0.8,0-1.5,0-2.2,0
		c-0.7,0-1.3,0-2.1,0c0.4-1.2-0.3-1.6-1.1-2.1c-1.3-0.9-2.1-2.1-2.5-3.7C67,39.3,67,39,67,38.7c1.4,0,2.6,0,3.9,0
		c0.1,0,0.3,0.2,0.3,0.4c0.2,1,0.7,1.3,1.9,1.2c0.9-0.1,1.3-0.5,1.3-1.4c0.1-1.3-0.4-1.8-1.6-1.8c-2.5-0.1-4.9-1.9-5.7-4.4
		c-0.7-2.2,0.3-4.7,2.4-6.1C70.4,26,71.1,25.5,70.7,24.4z"/>
</g>
<image style="overflow:visible;" width="225" height="225" xlink:href="../../../../../../../Mario arvizu/Manrique/descarga.jpg"  transform="matrix(0.5 0 0 0.5 386.6 -356.9)">
</image>
<g>
	<path class="st5" d="M293.8-121.8c0,17.8-14.5,32.3-32.3,32.3c-17.9,0-32.3-14.5-32.3-32.4c0-17.9,14.5-32.2,32.5-32.2
		C279.5-154.1,293.8-139.7,293.8-121.8z M253.4-134.5c1.8,1.1,1.9,1.6,0.3,2.9c-0.5,0.5-1.1,0.9-1.7,1.3c-2.1,1.7-4.5,3.2-3.9,6.5
		c0,0.2-0.1,0.4-0.2,0.6c-0.8,4.3,2.6,7.8,6.9,7c0.8-0.1,1.6-0.4,2.4-0.4c0.5,0,1,0.3,1.5,0.5c0.6,0.3,1.3,0.5,1.8,0.9
		c0.4,0.3,0.9,1,0.8,1.2c-0.6,1-0.1,1.7,0.3,2.4c0.6,1,1.2,2,1.8,3c0.5,0.9,0.6,1.6,0,2.6c-0.4,0.7-0.6,2.2-0.2,2.7
		c1.3,1.4,1.2,3.1,1.6,4.6c0.3,1.4,0.9,1.8,2,1.2c1.7-0.8,3.8-0.8,5-2.6c0.2-0.3,0.9-0.5,1.3-0.6c1-0.2,1.5-0.8,1.5-1.8
		c0-1.8,0.7-3.2,2.6-3.8c1-0.3,1.1-1,1-1.9c-0.5-2.7-0.3-5.1,1.9-7.2c1-1,1.7-2.3,2.4-3.6c0.4-0.7,0.5-1.5,0.8-2.6
		c-0.8,0.3-1.3,0.3-1.6,0.5c-2.1,1-2.4,0.9-3.9-0.9c-1.2-1.6-2.4-3.2-3.5-4.8c-0.4-0.5-0.6-1.2-1-2.1c2.4,1.2,4.1,2.5,5.1,4.6
		c0.3,0.5,0.6,1,0.9,1.6c0.5,0.9,1.3,1,1.8,0.1c1.1-1.6,2.2-3.2,3.1-4.9c0.2-0.3-0.1-1.1-0.4-1.4c-0.3-0.3-0.9-0.5-1.3-0.4
		c-1.6,0.6-3.1-0.3-3.5-2.3c0.7,0.1,1.4,0.1,2.1,0.2c1.3,0.3,2.5,1.3,4,0.4c0.1-0.1,0.7,0.2,0.9,0.5c1.1,2.1,2.1,4.2,3.2,6.3
		c0.3,0.6,0.8,1.2,1.2,1.8c0.1-0.1,0.3-0.1,0.4-0.2c-0.2-3.4-0.3-6.8-0.5-10.2c0-0.3-0.2-0.5-0.3-0.8c-3.2-7.7-8.7-13.3-16.3-16.7
		c-1.6-0.7-3.4-1.2-5-1.8c0,0.6,0.2,0.9,0.4,1.1c1,0.9,1.2,1.9,0.3,3c-0.2,0.3-0.2,0.7-0.4,1.1c-0.2,0.3-0.5,0.5-0.8,0.7
		c-0.2-0.3-0.6-0.5-0.6-0.8c0-1-0.6-1-1.4-1.3c-2.6-0.9-4.1,1.2-5.9,2.2c-0.9,0.5-0.4,1.9,0.5,2.3c0.7,0.3,1.4,0.6,2.3,1
		c0.3-1.1,0.6-2.2,0.9-3.4c0.3,0,0.5,0.1,0.8,0.1c0.1,1.1,0.1,2.2,0.2,3.3c0.1,1-0.5,1.6-1.4,1.3c-1.7-0.6-3.1-0.2-4.4,0.8
		c-0.1,0.1-0.4,0-0.6,0.1c-0.5-1.2-1-2.3-1.7-3.7c-1,1.2-1.8,2.1-2.7,3.3c1.5,0.4,2.5,0.7,3.9,1.1c-0.8,0.3-1.4,0.5-2,0.7
		c0.2,0.9,0.4,1.6,0.6,2.4C254.3-137.1,253.9-136.8,253.4-134.5z M241.7-140.7c0.8,0,2.3,1.4,2.3-0.4c0-3.4,3.7-4.3,4.2-7.2
		c0-0.1,0.3-0.1,0.9-0.4c-0.2,1.3-0.4,2.3-0.7,3.8c2-0.6,3.8-1.2,5.5-1.7c0.6,1.5,1.4,1.7,2.4,0.6c0.2-0.3,0.5-0.7,0.5-1
		c0.1-1.4,1-1.7,2.2-1.9c2.8-0.4,3.4-1.3,2.9-3.9c-10.3-0.7-21.8,5.5-26.7,14.8C237.3-139.5,239.3-140.6,241.7-140.7z M231.1-126.6
		c-2,8.4,1.9,20.6,8.6,26.1c-0.2-1-0.5-2-0.6-3c-0.1-0.4,0.1-0.9,0.2-1.4c0.1-0.5,0.3-1.1,0.2-1.5c-0.6-1.6-0.8-3.1,0.1-4.7
		c0.3-0.5,0.1-2-0.3-2.1c-1.7-0.7-2.2-2.2-3.2-3.5c-0.9-1.3-2.2-2.4-2-4.2c0-0.4-0.5-0.8-0.7-1.3c-0.3-0.7-0.7-1.4-0.7-2.1
		C232.9-125.7,232.2-126.2,231.1-126.6z"/>
	<path class="st1" d="M253.4-134.5c0.5-2.3,0.9-2.6,3.4-2.4c-0.2-0.8-0.4-1.6-0.6-2.4c0.6-0.2,1.2-0.4,2-0.7
		c-1.4-0.4-2.4-0.7-3.9-1.1c1-1.2,1.7-2.1,2.7-3.3c0.6,1.4,1.1,2.5,1.7,3.7c0.2,0,0.5,0.1,0.6-0.1c1.3-1,2.7-1.5,4.4-0.8
		c0.9,0.3,1.5-0.2,1.4-1.3c-0.1-1.1-0.1-2.2-0.2-3.3c-0.3,0-0.5-0.1-0.8-0.1c-0.3,1.2-0.7,2.4-0.9,3.4c-1-0.4-1.7-0.7-2.3-1
		c-0.9-0.4-1.3-1.8-0.5-2.3c1.8-1,3.3-3.1,5.9-2.2c0.7,0.2,1.4,0.3,1.4,1.3c0,0.3,0.4,0.5,0.6,0.8c0.3-0.2,0.6-0.4,0.8-0.7
		c0.2-0.3,0.2-0.8,0.4-1.1c1-1.1,0.7-2.1-0.3-3c-0.2-0.2-0.4-0.5-0.4-1.1c1.7,0.6,3.4,1.1,5,1.8c7.6,3.4,13,9,16.3,16.7
		c0.1,0.3,0.3,0.5,0.3,0.8c0.2,3.4,0.3,6.8,0.5,10.2c-0.1,0.1-0.3,0.1-0.4,0.2c-0.4-0.6-0.9-1.2-1.2-1.8c-1.1-2.1-2.1-4.2-3.2-6.3
		c-0.1-0.3-0.7-0.6-0.9-0.5c-1.4,0.9-2.7-0.1-4-0.4c-0.7-0.1-1.4-0.2-2.1-0.2c0.3,2,1.9,2.8,3.5,2.3c0.3-0.1,1,0.1,1.3,0.4
		c0.3,0.3,0.6,1.1,0.4,1.4c-0.9,1.7-2,3.3-3.1,4.9c-0.6,0.8-1.3,0.7-1.8-0.1c-0.3-0.5-0.7-1-0.9-1.6c-1-2.1-2.7-3.4-5.1-4.6
		c0.4,0.9,0.6,1.6,1,2.1c1.1,1.6,2.3,3.3,3.5,4.8c1.5,1.8,1.8,1.8,3.9,0.9c0.4-0.2,0.8-0.3,1.6-0.5c-0.3,1.1-0.4,1.9-0.8,2.6
		c-0.7,1.3-1.4,2.6-2.4,3.6c-2.2,2.1-2.3,4.5-1.9,7.2c0.2,1,0,1.6-1,1.9c-1.9,0.6-2.6,2-2.6,3.8c0,1.1-0.4,1.6-1.5,1.8
		c-0.5,0.1-1.1,0.2-1.3,0.6c-1.2,1.8-3.3,1.8-5,2.6c-1.1,0.5-1.7,0.1-2-1.2c-0.4-1.5-0.3-3.2-1.6-4.6c-0.4-0.5-0.2-1.9,0.2-2.7
		c0.6-1,0.5-1.7,0-2.6c-0.6-1-1.2-2-1.8-3c-0.5-0.8-1-1.5-0.3-2.4c0.1-0.2-0.4-0.9-0.8-1.2c-0.5-0.4-1.2-0.7-1.8-0.9
		c-0.5-0.2-1-0.5-1.5-0.5c-0.8,0-1.6,0.3-2.4,0.4c-4.3,0.8-7.7-2.7-6.9-7c0-0.2,0.2-0.4,0.2-0.6c-0.6-3.3,1.8-4.8,3.9-6.5
		c0.6-0.5,1.2-0.9,1.7-1.3C255.3-132.9,255.3-133.4,253.4-134.5z M265.5-135.9c-0.1,0.7-0.1,1-0.3,1.3c-0.1,0.2-0.4,0.6-0.6,0.6
		c-0.3,0-0.9-0.2-0.9-0.3c0.1-1.6-1.4-1.6-2.2-2.4c-1.2-1.2-1.9-0.6-2.6,0.2c-1,1-1.9,2.2-3.1,3.5c2,1.5,3.8,0.6,5.9-0.5
		c-0.3,1.7-0.2,2.8,1.7,2.6c0.3,0,0.5,0.4,0.8,0.5c1.1,0.4,2.2,0.9,2.8,1.1c0.8-1,1.3-2.2,2-2.3c0.9-0.2,2,0.5,3.5,0.9
		c-0.1-1.2,0.1-2.3-0.3-3.1c-0.2-0.4-1.4-0.6-1-1.4c0.3-0.6,1.1-0.9,1.6-1.4c0.3-0.3,0.5-0.7,0.7-1c-1-0.4-2-1.1-3.1-1.3
		c-1.2-0.2-1.2,0.9-1.5,1.8c-0.2,0.7-0.7,1.2-1.1,1.8c-0.1,0-0.2-0.1-0.3-0.1c-0.3,0.6-0.6,1.2-1.1,2.1
		C266.1-134.5,265.9-135,265.5-135.9z"/>
	<path class="st1" d="M241.7-140.7c-2.4,0.1-4.5,1.2-6.3,2.8c4.9-9.3,16.3-15.5,26.7-14.8c0.4,2.6-0.2,3.5-2.9,3.9
		c-1.3,0.2-2.1,0.5-2.2,1.9c0,0.4-0.3,0.7-0.5,1c-1,1.2-1.9,1-2.4-0.6c-1.7,0.5-3.5,1.1-5.5,1.7c0.3-1.5,0.5-2.5,0.7-3.8
		c-0.6,0.3-0.9,0.3-0.9,0.4c-0.5,2.9-4.2,3.7-4.2,7.2C244.1-139.3,242.5-140.7,241.7-140.7z"/>
	<path class="st1" d="M231.1-126.6c1,0.4,1.8,0.9,1.8,2.2c0,0.7,0.4,1.4,0.7,2.1c0.2,0.4,0.7,0.9,0.7,1.3c-0.2,1.8,1,2.9,2,4.2
		c0.9,1.3,1.5,2.8,3.2,3.5c0.3,0.1,0.6,1.6,0.3,2.1c-1,1.6-0.8,3.1-0.1,4.7c0.2,0.4-0.1,1-0.2,1.5c-0.1,0.5-0.3,0.9-0.2,1.4
		c0.1,1,0.4,1.9,0.6,3C233-105.9,229.1-118.2,231.1-126.6z"/>
	<path class="st5" d="M265.5-135.9c0.4,0.9,0.6,1.4,1.1,2.4c0.5-0.9,0.8-1.5,1.1-2.1c0.1,0,0.2,0.1,0.3,0.1c0.4-0.6,0.9-1.2,1.1-1.8
		c0.2-0.9,0.3-2,1.5-1.8c1.1,0.2,2.1,0.8,3.1,1.3c-0.2,0.3-0.4,0.7-0.7,1c-0.5,0.5-1.3,0.8-1.6,1.4c-0.4,0.9,0.8,1,1,1.4
		c0.4,0.8,0.2,1.9,0.3,3.1c-1.5-0.4-2.6-1.1-3.5-0.9c-0.7,0.1-1.2,1.3-2,2.3c-0.6-0.2-1.7-0.7-2.8-1.1c-0.3-0.1-0.6-0.5-0.8-0.5
		c-1.9,0.2-2-1-1.7-2.6c-2.1,1.1-4,2-5.9,0.5c1.2-1.3,2.1-2.5,3.1-3.5c0.7-0.7,1.4-1.4,2.6-0.2c0.7,0.8,2.3,0.8,2.2,2.4
		c0,0.1,0.6,0.3,0.9,0.3c0.2,0,0.5-0.3,0.6-0.6C265.3-134.9,265.3-135.2,265.5-135.9z"/>
</g>
</svg>
