<?xml version="1.0" encoding="utf-8"?>
<!-- Generator: Adobe Illustrator 23.1.0, SVG Export Plug-In . SVG Version: 6.00 Build 0)  -->
<svg version="1.1" id="Capa_1" xmlns="http://www.w3.org/2000/svg" xmlns:xlink="http://www.w3.org/1999/xlink" x="0px" y="0px"
	 viewBox="0 0 121 104" style="enable-background:new 0 0 121 104;" xml:space="preserve">
<style type="text/css">
	.st0{fill:#BCBCBC;}
	.st1{fill:#FFFFFF;}
	.st2{fill:#FFFFFE;}
	.st3{fill:#FDFEFC;}
	.st4{fill:#6E6D6D;}
	.st5{fill:#7C7B7B;}
</style>
<path class="st0" d="M106.3,52c0,25.3-20.5,45.8-45.8,45.8S14.6,77.3,14.6,52S35.2,6.2,60.5,6.2S106.3,26.7,106.3,52z"/>
<image style="overflow:visible;" width="241" height="247" xlink:href="../travex/perfil_icon.png"  transform="matrix(0.3842 0 0 0.3842 136.6 52)">
</image>
<g>
	<path class="st1" d="M27.7-70.4c-3.3,0-6.6,0-10,0c-0.5,0-0.4,0-0.4-0.5c0.1-1.2,0.3-2.4,0.4-3.6c0.1-1.1,0.2-2.2,0.4-3.3
		c0.1-0.5,0.2-1,0.4-1.5c0.6-1.4,1.7-2.2,3.1-2.4c0.8-0.1,1.6-0.1,2.3,0c0.9,0,1.8,0.1,2.7,0.1c1.4,0,2.8,0,4.3,0c0.6,0,1.3,0,1.9,0
		c0.5,0,0.9,0.1,1.4,0.1c1.5,0.3,2.4,1.2,2.8,2.7c0.1,0.5,0.2,0.9,0.2,1.4c0.1,1.6,0.3,3.1,0.5,4.7c0.1,0.7,0.2,1.5,0.3,2.2
		c0,0.2,0,0.2-0.2,0.2c-0.1,0-0.2,0-0.3,0C34.2-70.4,31-70.4,27.7-70.4z"/>
	<path class="st1" d="M60-70.4c-3.3,0-6.6,0-10,0c-0.4,0-0.4,0.1-0.4-0.4c0.2-1.6,0.4-3.3,0.6-4.9c0.1-0.9,0.1-1.8,0.4-2.7
		c0.1-0.5,0.3-0.9,0.5-1.3c0.6-1.2,1.6-1.8,2.9-2c0.7-0.1,1.5-0.1,2.3,0c0.9,0.1,1.8,0.1,2.7,0.1c1.4,0,2.9,0,4.3,0
		c0.7,0,1.4-0.1,2,0c0.6,0,1.2,0.1,1.8,0.3c1,0.3,1.7,1,2.1,2c0.2,0.5,0.3,1.1,0.4,1.7c0.1,2,0.4,3.9,0.7,5.8
		c0.1,0.4,0.1,0.8,0.2,1.2c0,0.3,0,0.3-0.2,0.3c-0.1,0-0.2,0-0.3,0C66.5-70.4,63.2-70.4,60-70.4z"/>
	<path class="st1" d="M45.1-105.5c-3.3,0-6.6,0-9.9,0c-0.5,0-0.5,0-0.4-0.5c0.1-1.1,0.3-2.3,0.4-3.4c0.1-0.8,0.2-1.7,0.2-2.5
		c0.1-0.8,0.2-1.5,0.4-2.2c0.5-1.6,1.6-2.4,3.2-2.7c0.8-0.1,1.5-0.1,2.3,0c0.9,0.1,1.8,0.1,2.7,0.1c1.3,0,2.7,0,4,0
		c0.7,0,1.5-0.1,2.2-0.1c0.5,0,1,0.1,1.5,0.2c1.5,0.4,2.3,1.3,2.7,2.8c0.1,0.6,0.2,1.1,0.2,1.7c0.1,1.5,0.3,2.9,0.5,4.4
		c0.1,0.6,0.2,1.3,0.3,1.9c0.1,0.4,0,0.4-0.4,0.4C51.7-105.5,48.4-105.5,45.1-105.5z"/>
	<path class="st2" d="M51.4-124.7c0,2.9-1.8,5.1-4.6,5.9c-1.1,0.3-2.2,0.4-3.4,0.1c-2.5-0.7-4.1-2.4-4.5-4.9c-0.5-2.8,1.1-5.7,4-6.7
		c1-0.3,1.9-0.3,2.9-0.2c1.2,0.2,2.3,0.5,3.3,1.3c1.2,0.9,1.9,2.1,2.1,3.6C51.4-125.3,51.4-124.9,51.4-124.7z"/>
	<path class="st2" d="M59.7-95.5c1.5,0,2.9,0.3,4.1,1.2c1.4,1,2.2,2.3,2.4,4.1c0.1,1.2,0,2.4-0.6,3.5c-0.8,1.6-2.2,2.6-3.9,3.1
		c-1,0.3-2,0.4-3,0.2c-1.9-0.4-3.2-1.4-4.2-3.1c-1.8-3.1-0.2-7.5,3.4-8.6c0.3-0.1,0.5-0.1,0.8-0.2C58.9-95.5,59.3-95.6,59.7-95.5z"
		/>
	<path class="st2" d="M33.9-89.6c0,2.6-1.5,4.7-3.9,5.6c-0.9,0.3-1.8,0.5-2.7,0.5c-1.5,0-2.8-0.5-3.9-1.5c-1.1-1-1.8-2.2-2-3.7
		c-0.4-3.4,1.9-6.3,5-6.7c2-0.3,3.9,0.2,5.5,1.4c1.1,0.8,1.7,2,1.9,3.3C33.9-90.4,33.9-90,33.9-89.6z"/>
	<path class="st3" d="M38.8-102.4c0,0.1-0.1,0.2-0.1,0.2c-0.6,0.8-1.2,1.6-1.8,2.4c-0.9,1.2-1.8,2.5-2.7,3.7
		c-0.2,0.3-0.2,0.3-0.5,0.1c-0.2-0.2-0.5-0.3-0.7-0.5c-0.2-0.2-0.2-0.2,0-0.4c0.5-0.7,1-1.3,1.5-2c1-1.3,2-2.7,3-4
		c0-0.1,0.1-0.1,0.1-0.2c0.1-0.1,0.2-0.2,0.3-0.1c0.3,0.2,0.5,0.4,0.8,0.6C38.7-102.5,38.8-102.5,38.8-102.4z"/>
	<path class="st3" d="M55.9-95.9c-0.1,0-0.1-0.1-0.2-0.2c-0.5-0.6-0.9-1.2-1.4-1.8c-1-1.4-2.1-2.8-3.1-4.2c0,0-0.1-0.1-0.1-0.1
		c-0.2-0.2-0.2-0.2,0.1-0.4c0.2-0.2,0.5-0.3,0.7-0.5c0.2-0.2,0.2-0.2,0.4,0.1c0.9,1.2,1.8,2.4,2.6,3.6c0.6,0.8,1.2,1.6,1.8,2.5
		c0.3,0.3,0.3,0.3-0.1,0.6c-0.2,0.2-0.4,0.3-0.6,0.5C56-95.9,56-95.9,55.9-95.9z"/>
</g>
<g>
	<path class="st4" d="M140-266.7c-0.3,0.8-0.6,1.6-1,2.3c-0.7,1.2-1.7,2-3,2.6c-5.2,2.7-10.4,5.3-15.5,8.1
		c-3.9,2.1-7.9,2.6-12.3,1.6c-7.6-1.7-15.2-3.2-22.8-4.8c-0.1,0-0.1,0-0.3,0c0,0.6,0,1.1,0,1.6c0,1.3-0.9,2.2-2.2,2.2
		c-2.8,0-5.5,0-8.3,0c-1.3,0-2.2-0.9-2.2-2.2c0-8.4,0-16.7,0-25.1c0-1.3,0.9-2.2,2.2-2.2c2.8,0,5.5,0,8.3,0c1.3,0,2.1,0.9,2.2,2.2
		c0,0.7,0,1.4,0,2.2c1.4-0.4,2.8-0.7,4.1-1.1c1.9-0.5,3.9-1,5.8-1.4c3.3-0.6,6.6-0.2,9.8,1c3.6,1.4,7.2,2.7,10.8,4.1
		c2.2,0.8,3.6,2.3,4,4.6c0,0.1,0.1,0.2,0.1,0.3c1.6-0.6,3.3-1.1,4.9-1.6c2.1-0.7,4.2-1.4,6.3-2.1c3.9-1.3,8.1,1.1,8.9,5.1
		c0,0.2,0.1,0.4,0.2,0.6C140-267.9,140-267.3,140-266.7z M85.3-261.1c0.2,0.1,0.2,0.1,0.3,0.1c8,1.7,16,3.3,24,5
		c2.9,0.6,5.6,0.5,8.3-0.9c5.6-2.9,11.1-5.8,16.7-8.8c1.1-0.6,1.6-1.8,1.2-2.8c-0.7-1.8-1.6-2.3-3.1-1.8c-5.3,1.8-10.7,3.6-16,5.5
		c-1.3,0.4-2.5,0.6-3.8,0.2c-2.5-0.7-5.1-1.4-7.6-2.1c-1.2-0.3-2.4-0.7-3.7-1c0.4-1.4,0.8-2.7,1.1-4c0.2,0,0.3,0,0.3,0.1
		c3.6,1,7.2,2,10.9,3.1c0.9,0.3,2-0.4,1.8-1.2c-0.2-0.6-0.4-1.2-1.2-1.5c-3.8-1.4-7.6-2.9-11.4-4.3c-2.5-0.9-5-1.2-7.6-0.6
		c-3.3,0.8-6.6,1.7-9.9,2.5c-0.1,0-0.3,0.3-0.3,0.5c0,0.7,0,1.4,0,2C85.3-267.9,85.3-264.5,85.3-261.1z M76.9-278.2c0,7,0,14,0,21
		c1.4,0,2.8,0,4.1,0c0-7,0-14,0-21C79.7-278.2,78.3-278.2,76.9-278.2z"/>
	<path class="st4" d="M140-297.7c-0.2,1-0.3,2.1-0.6,3.1c-2.5,7.9-7.7,12.8-15.9,14.1c-6.8,1.1-12.5-1.6-17-6.8
		c-3-3.5-4.6-7.6-4.4-12.2c0.2-7,3.6-12.4,9.5-16c8.9-5.4,20.3-2.3,25.7,6.9c1.4,2.3,2.2,4.8,2.5,7.5c0,0.1,0.1,0.2,0.1,0.4
		C140-299.8,140-298.8,140-297.7z M121.1-314.1c-8.5,0-14.8,6.3-14.8,14.8c0,8.4,6.3,14.7,14.9,14.7c8.3,0,14.6-6.4,14.6-14.6
		C135.8-307.7,129.6-314.1,121.1-314.1z"/>
	<path class="st1" d="M85.3-261.1c0-3.4,0-6.7,0-10.1c0-0.7,0-1.4,0-2c0-0.2,0.2-0.5,0.3-0.5c3.3-0.9,6.6-1.7,9.9-2.5
		c2.6-0.6,5.1-0.3,7.6,0.6c3.8,1.4,7.6,2.9,11.4,4.3c0.7,0.3,1,0.8,1.2,1.5c0.2,0.8-0.8,1.5-1.8,1.2c-3.6-1-7.2-2-10.9-3.1
		c-0.1,0-0.2,0-0.3-0.1c-0.4,1.3-0.7,2.6-1.1,4c1.3,0.4,2.5,0.7,3.7,1c2.5,0.7,5,1.4,7.6,2.1c1.3,0.3,2.5,0.2,3.8-0.2
		c5.3-1.8,10.7-3.7,16-5.5c1.5-0.5,2.3,0,3.1,1.8c0.4,1.1,0,2.2-1.2,2.8c-5.6,2.9-11.1,5.8-16.7,8.8c-2.7,1.4-5.4,1.6-8.3,0.9
		c-8-1.7-16-3.4-24-5C85.5-261.1,85.5-261.1,85.3-261.1z"/>
	<path class="st1" d="M76.9-278.2c1.4,0,2.8,0,4.1,0c0,7,0,14,0,21c-1.4,0-2.7,0-4.1,0C76.9-264.2,76.9-271.2,76.9-278.2z"/>
	<path class="st1" d="M121.1-314.1c8.4,0,14.7,6.3,14.7,14.8c0,8.3-6.3,14.6-14.6,14.6c-8.5,0-14.9-6.3-14.9-14.7
		C106.4-307.8,112.6-314.1,121.1-314.1z M118.9-309.8c0.4,1.1-0.3,1.5-1.1,2.1c-2.1,1.5-3.1,4-2.4,6.1c0.8,2.5,3.2,4.3,5.7,4.4
		c1.2,0,1.6,0.5,1.6,1.8c-0.1,1-0.4,1.4-1.3,1.4c-1.2,0.1-1.7-0.2-1.9-1.2c0-0.2-0.2-0.4-0.3-0.4c-1.3,0-2.6,0-3.9,0
		c0,0.4,0,0.7,0.1,1c0.4,1.5,1.2,2.8,2.5,3.7c0.8,0.5,1.5,0.9,1.1,2.1c0.8,0,1.5,0,2.1,0c0.7,0,1.4,0,2.2,0
		c-0.4-1.2,0.3-1.6,1.1-2.1c2.1-1.5,3-4,2.3-6.2c-0.8-2.5-3.2-4.3-5.7-4.4c-1.2,0-1.6-0.5-1.6-1.8c0.1-1,0.4-1.4,1.3-1.4
		c1.2-0.1,1.7,0.2,1.9,1.2c0,0.2,0.2,0.4,0.4,0.4c1.3,0,2.5,0,3.8,0c0.1-0.1,0.1-0.2,0.1-0.2c0-0.1,0-0.2,0-0.3
		c-0.2-1.8-1.1-3.2-2.5-4.2c-0.7-0.5-1.5-0.9-1.1-2.1C121.8-309.8,120.4-309.8,118.9-309.8z"/>
	<path class="st4" d="M118.9-309.8c1.5,0,2.9,0,4.3,0c-0.4,1.2,0.4,1.6,1.1,2.1c1.4,1,2.3,2.4,2.5,4.2c0,0.1,0,0.2,0,0.3
		c0,0,0,0.1-0.1,0.2c-1.2,0-2.5,0-3.8,0c-0.1,0-0.3-0.3-0.4-0.4c-0.2-1-0.7-1.3-1.9-1.2c-0.9,0.1-1.3,0.5-1.3,1.4
		c-0.1,1.3,0.4,1.8,1.6,1.8c2.5,0.1,4.9,1.9,5.7,4.4c0.7,2.2-0.2,4.6-2.3,6.2c-0.8,0.5-1.5,0.9-1.1,2.1c-0.8,0-1.5,0-2.2,0
		c-0.7,0-1.3,0-2.1,0c0.4-1.2-0.3-1.6-1.1-2.1c-1.3-0.9-2.1-2.1-2.5-3.7c-0.1-0.3-0.1-0.6-0.1-1c1.4,0,2.6,0,3.9,0
		c0.1,0,0.3,0.2,0.3,0.4c0.2,1,0.7,1.3,1.9,1.2c0.9-0.1,1.3-0.5,1.3-1.4c0.1-1.3-0.4-1.8-1.6-1.8c-2.5-0.1-4.9-1.9-5.7-4.4
		c-0.7-2.2,0.3-4.7,2.4-6.1C118.6-308.3,119.3-308.7,118.9-309.8z"/>
</g>
<g>
	<path class="st5" d="M159.4-114.6c3,1.2,4,3.4,3.9,6.5c-0.1,3.3-0.2,6.5,0,9.8c0.1,2.2-0.5,3.7-2.5,4.9c0-0.5,0-1,0-1.5
		c0-4.7,0-9.5,0-14.2c0-2.1-0.9-3-3-3c-12.8,0-25.7,0-38.5,0c-2.4,0-3.2,0.8-3.2,3.2c0,17,0,33.9,0,50.9c0,2.1,0.9,3,3,3
		c9.2,0,18.4,0,27.6,0c2,0,3-0.9,3-2.9c0-1.7,0-3.5,0-5.2c0-2.2,0.8-3,3-3c1.7,0,3.5,0,5.2,0c1.9,0,2.9-1,2.9-2.9
		c0-2.1,0.2-4.2,0-6.3c-0.2-2.1,1.1-3,2.4-4c-0.3,4.9,1.1,9.9-1.3,14.6c-0.7,1.3-1.5,2.5-2.5,3.6c-1.5,1.7-3.2,3.2-4.8,4.8
		c-2.7,2.6-5.9,3.9-9.6,3.9c-8.6,0-17.1,0-25.7,0c-3.9,0-5.9-1.9-5.9-5.8c0-16.6,0-33.2,0-49.8c0-3.1,0.9-5.3,3.9-6.5
		C131.4-114.6,145.4-114.6,159.4-114.6z"/>
	<path class="st5" d="M175.7-88.9c-0.4,0.4-0.9,0.7-1.3,1.1c-2.4,2.4-4.9,4.9-7.4,7.4c-0.4-0.3-0.7-0.6-1.2-1.1
		c1.5-1.4,3-2.8,4.5-4.2c-0.5-0.6-0.7-0.9-1.1-1.3c1.5-1.4,2.9-2.7,4.4-4.2c0.6,0.6,1.3,1.3,2.1,1.9C175.7-89.1,175.7-89,175.7-88.9
		z"/>
	<path class="st5" d="M150.5-70.7c-1.4-1.4-2.8-2.7-4.1-4c7.3-7.3,14.5-14.5,21.7-21.7c1.3,1.2,2.7,2.6,4,4
		C164.9-85.2,157.7-78,150.5-70.7z"/>
	<path class="st5" d="M124.8-95.8c-0.1-7.5,6-13.7,13.5-13.7c7.6-0.1,13.7,6,13.8,13.7c0,7.5-6,13.5-13.6,13.6
		C131-82.2,124.8-88.3,124.8-95.8z M138.5-107.1c-6.2-0.1-11.3,4.9-11.3,11.1c0,6,4.9,11.1,11,11.2c6.3,0.1,11.4-4.9,11.5-11.1
		C149.7-101.9,144.6-107,138.5-107.1z"/>
	<path class="st5" d="M121.4-72.6c0-0.8,0-1.5,0-2.3c5.1,0,10.2,0,15.3,0c0,0.8,0,1.5,0,2.3C131.6-72.6,126.5-72.6,121.4-72.6z"/>
	<path class="st5" d="M121.3-67.7c0-0.8,0-1.5,0-2.3c5.1,0,10.2,0,15.3,0c0,0.7,0,1.5,0,2.3C131.6-67.7,126.5-67.7,121.3-67.7z"/>
	<path class="st5" d="M121.4-65c5.2,0,10.2,0,15.3,0c0,0.8,0,1.5,0,2.3c-5.1,0-10.1,0-15.3,0C121.4-63.5,121.4-64.2,121.4-65z"/>
	<path class="st5" d="M143.6-68c0.5-2,1-3.8,1.4-5.6c1.4,1.5,2.7,2.8,4.1,4.2C147.4-68.9,145.6-68.5,143.6-68z"/>
	<path class="st5" d="M169.7-98.3c1.2-1,2.8-1,3.9,0.1c1.2,1.2,1.3,2.7,0.2,4.1C172.5-95.5,171.1-96.9,169.7-98.3z"/>
	<path class="st5" d="M140.2-93.1c-2.8,0-5.4,0.1-8-0.1c-0.4,0-1-0.9-1-1.3c0-0.4,0.8-1,1.2-1.1c1.7-0.1,3.4-0.1,5.3-0.1
		c0-1.5,0-3,0-4.4c0-0.9,0.1-1.8,1.2-1.8c1.1,0,1.2,0.9,1.2,1.8C140.2-97.7,140.2-95.4,140.2-93.1z"/>
</g>
<g>
	<path class="st5" d="M293.8-121.8c0,17.8-14.5,32.3-32.3,32.3c-17.9,0-32.3-14.5-32.3-32.4c0-17.9,14.5-32.2,32.5-32.2
		C279.5-154.1,293.8-139.7,293.8-121.8z M253.4-134.5c1.8,1.1,1.9,1.6,0.3,2.9c-0.5,0.5-1.1,0.9-1.7,1.3c-2.1,1.7-4.5,3.2-3.9,6.5
		c0,0.2-0.1,0.4-0.2,0.6c-0.8,4.3,2.6,7.8,6.9,7c0.8-0.1,1.6-0.4,2.4-0.4c0.5,0,1,0.3,1.5,0.5c0.6,0.3,1.3,0.5,1.8,0.9
		c0.4,0.3,0.9,1,0.8,1.2c-0.6,1-0.1,1.7,0.3,2.4c0.6,1,1.2,2,1.8,3c0.5,0.9,0.6,1.6,0,2.6c-0.4,0.7-0.6,2.2-0.2,2.7
		c1.3,1.4,1.2,3.1,1.6,4.6c0.3,1.4,0.9,1.8,2,1.2c1.7-0.8,3.8-0.8,5-2.6c0.2-0.3,0.9-0.5,1.3-0.6c1-0.2,1.5-0.8,1.5-1.8
		c0-1.8,0.7-3.2,2.6-3.8c1-0.3,1.1-1,1-1.9c-0.5-2.7-0.3-5.1,1.9-7.2c1-1,1.7-2.3,2.4-3.6c0.4-0.7,0.5-1.5,0.8-2.6
		c-0.8,0.3-1.3,0.3-1.6,0.5c-2.1,1-2.4,0.9-3.9-0.9c-1.2-1.6-2.4-3.2-3.5-4.8c-0.4-0.5-0.6-1.2-1-2.1c2.4,1.2,4.1,2.5,5.1,4.6
		c0.3,0.5,0.6,1,0.9,1.6c0.5,0.9,1.3,1,1.8,0.1c1.1-1.6,2.2-3.2,3.1-4.9c0.2-0.3-0.1-1.1-0.4-1.4c-0.3-0.3-0.9-0.5-1.3-0.4
		c-1.6,0.6-3.1-0.3-3.5-2.3c0.7,0.1,1.4,0.1,2.1,0.2c1.3,0.3,2.5,1.3,4,0.4c0.1-0.1,0.7,0.2,0.9,0.5c1.1,2.1,2.1,4.2,3.2,6.3
		c0.3,0.6,0.8,1.2,1.2,1.8c0.1-0.1,0.3-0.1,0.4-0.2c-0.2-3.4-0.3-6.8-0.5-10.2c0-0.3-0.2-0.5-0.3-0.8c-3.2-7.7-8.7-13.3-16.3-16.7
		c-1.6-0.7-3.4-1.2-5-1.8c0,0.6,0.2,0.9,0.4,1.1c1,0.9,1.2,1.9,0.3,3c-0.2,0.3-0.2,0.7-0.4,1.1c-0.2,0.3-0.5,0.5-0.8,0.7
		c-0.2-0.3-0.6-0.5-0.6-0.8c0-1-0.6-1-1.4-1.3c-2.6-0.9-4.1,1.2-5.9,2.2c-0.9,0.5-0.4,1.9,0.5,2.3c0.7,0.3,1.4,0.6,2.3,1
		c0.3-1.1,0.6-2.2,0.9-3.4c0.3,0,0.5,0.1,0.8,0.1c0.1,1.1,0.1,2.2,0.2,3.3c0.1,1-0.5,1.6-1.4,1.3c-1.7-0.6-3.1-0.2-4.4,0.8
		c-0.1,0.1-0.4,0-0.6,0.1c-0.5-1.2-1-2.3-1.7-3.7c-1,1.2-1.8,2.1-2.7,3.3c1.5,0.4,2.5,0.7,3.9,1.1c-0.8,0.3-1.4,0.5-2,0.7
		c0.2,0.9,0.4,1.6,0.6,2.4C254.3-137.1,253.9-136.8,253.4-134.5z M241.7-140.7c0.8,0,2.3,1.4,2.3-0.4c0-3.4,3.7-4.3,4.2-7.2
		c0-0.1,0.3-0.1,0.9-0.4c-0.2,1.3-0.4,2.3-0.7,3.8c2-0.6,3.8-1.2,5.5-1.7c0.6,1.5,1.4,1.7,2.4,0.6c0.2-0.3,0.5-0.7,0.5-1
		c0.1-1.4,1-1.7,2.2-1.9c2.8-0.4,3.4-1.3,2.9-3.9c-10.3-0.7-21.8,5.5-26.7,14.8C237.3-139.5,239.3-140.6,241.7-140.7z M231.1-126.6
		c-2,8.4,1.9,20.6,8.6,26.1c-0.2-1-0.5-2-0.6-3c-0.1-0.4,0.1-0.9,0.2-1.4c0.1-0.5,0.3-1.1,0.2-1.5c-0.6-1.6-0.8-3.1,0.1-4.7
		c0.3-0.5,0.1-2-0.3-2.1c-1.7-0.7-2.2-2.2-3.2-3.5c-0.9-1.3-2.2-2.4-2-4.2c0-0.4-0.5-0.8-0.7-1.3c-0.3-0.7-0.7-1.4-0.7-2.1
		C232.9-125.7,232.2-126.2,231.1-126.6z"/>
	<path class="st1" d="M253.4-134.5c0.5-2.3,0.9-2.6,3.4-2.4c-0.2-0.8-0.4-1.6-0.6-2.4c0.6-0.2,1.2-0.4,2-0.7
		c-1.4-0.4-2.4-0.7-3.9-1.1c1-1.2,1.7-2.1,2.7-3.3c0.6,1.4,1.1,2.5,1.7,3.7c0.2,0,0.5,0.1,0.6-0.1c1.3-1,2.7-1.5,4.4-0.8
		c0.9,0.3,1.5-0.2,1.4-1.3c-0.1-1.1-0.1-2.2-0.2-3.3c-0.3,0-0.5-0.1-0.8-0.1c-0.3,1.2-0.7,2.4-0.9,3.4c-1-0.4-1.7-0.7-2.3-1
		c-0.9-0.4-1.3-1.8-0.5-2.3c1.8-1,3.3-3.1,5.9-2.2c0.7,0.2,1.4,0.3,1.4,1.3c0,0.3,0.4,0.5,0.6,0.8c0.3-0.2,0.6-0.4,0.8-0.7
		c0.2-0.3,0.2-0.8,0.4-1.1c1-1.1,0.7-2.1-0.3-3c-0.2-0.2-0.4-0.5-0.4-1.1c1.7,0.6,3.4,1.1,5,1.8c7.6,3.4,13,9,16.3,16.7
		c0.1,0.3,0.3,0.5,0.3,0.8c0.2,3.4,0.3,6.8,0.5,10.2c-0.1,0.1-0.3,0.1-0.4,0.2c-0.4-0.6-0.9-1.2-1.2-1.8c-1.1-2.1-2.1-4.2-3.2-6.3
		c-0.1-0.3-0.7-0.6-0.9-0.5c-1.4,0.9-2.7-0.1-4-0.4c-0.7-0.1-1.4-0.2-2.1-0.2c0.3,2,1.9,2.8,3.5,2.3c0.3-0.1,1,0.1,1.3,0.4
		c0.3,0.3,0.6,1.1,0.4,1.4c-0.9,1.7-2,3.3-3.1,4.9c-0.6,0.8-1.3,0.7-1.8-0.1c-0.3-0.5-0.7-1-0.9-1.6c-1-2.1-2.7-3.4-5.1-4.6
		c0.4,0.9,0.6,1.6,1,2.1c1.1,1.6,2.3,3.3,3.5,4.8c1.5,1.8,1.8,1.8,3.9,0.9c0.4-0.2,0.8-0.3,1.6-0.5c-0.3,1.1-0.4,1.9-0.8,2.6
		c-0.7,1.3-1.4,2.6-2.4,3.6c-2.2,2.1-2.3,4.5-1.9,7.2c0.2,1,0,1.6-1,1.9c-1.9,0.6-2.6,2-2.6,3.8c0,1.1-0.4,1.6-1.5,1.8
		c-0.5,0.1-1.1,0.2-1.3,0.6c-1.2,1.8-3.3,1.8-5,2.6c-1.1,0.5-1.7,0.1-2-1.2c-0.4-1.5-0.3-3.2-1.6-4.6c-0.4-0.5-0.2-1.9,0.2-2.7
		c0.6-1,0.5-1.7,0-2.6c-0.6-1-1.2-2-1.8-3c-0.5-0.8-1-1.5-0.3-2.4c0.1-0.2-0.4-0.9-0.8-1.2c-0.5-0.4-1.2-0.7-1.8-0.9
		c-0.5-0.2-1-0.5-1.5-0.5c-0.8,0-1.6,0.3-2.4,0.4c-4.3,0.8-7.7-2.7-6.9-7c0-0.2,0.2-0.4,0.2-0.6c-0.6-3.3,1.8-4.8,3.9-6.5
		c0.6-0.5,1.2-0.9,1.7-1.3C255.3-132.9,255.3-133.4,253.4-134.5z M265.5-135.9c-0.1,0.7-0.1,1-0.3,1.3c-0.1,0.2-0.4,0.6-0.6,0.6
		c-0.3,0-0.9-0.2-0.9-0.3c0.1-1.6-1.4-1.6-2.2-2.4c-1.2-1.2-1.9-0.6-2.6,0.2c-1,1-1.9,2.2-3.1,3.5c2,1.5,3.8,0.6,5.9-0.5
		c-0.3,1.7-0.2,2.8,1.7,2.6c0.3,0,0.5,0.4,0.8,0.5c1.1,0.4,2.2,0.9,2.8,1.1c0.8-1,1.3-2.2,2-2.3c0.9-0.2,2,0.5,3.5,0.9
		c-0.1-1.2,0.1-2.3-0.3-3.1c-0.2-0.4-1.4-0.6-1-1.4c0.3-0.6,1.1-0.9,1.6-1.4c0.3-0.3,0.5-0.7,0.7-1c-1-0.4-2-1.1-3.1-1.3
		c-1.2-0.2-1.2,0.9-1.5,1.8c-0.2,0.7-0.7,1.2-1.1,1.8c-0.1,0-0.2-0.1-0.3-0.1c-0.3,0.6-0.6,1.2-1.1,2.1
		C266.1-134.5,265.9-135,265.5-135.9z"/>
	<path class="st1" d="M241.7-140.7c-2.4,0.1-4.5,1.2-6.3,2.8c4.9-9.3,16.3-15.5,26.7-14.8c0.4,2.6-0.2,3.5-2.9,3.9
		c-1.3,0.2-2.1,0.5-2.2,1.9c0,0.4-0.3,0.7-0.5,1c-1,1.2-1.9,1-2.4-0.6c-1.7,0.5-3.5,1.1-5.5,1.7c0.3-1.5,0.5-2.5,0.7-3.8
		c-0.6,0.3-0.9,0.3-0.9,0.4c-0.5,2.9-4.2,3.7-4.2,7.2C244.1-139.3,242.5-140.7,241.7-140.7z"/>
	<path class="st1" d="M231.1-126.6c1,0.4,1.8,0.9,1.8,2.2c0,0.7,0.4,1.4,0.7,2.1c0.2,0.4,0.7,0.9,0.7,1.3c-0.2,1.8,1,2.9,2,4.2
		c0.9,1.3,1.5,2.8,3.2,3.5c0.3,0.1,0.6,1.6,0.3,2.1c-1,1.6-0.8,3.1-0.1,4.7c0.2,0.4-0.1,1-0.2,1.5c-0.1,0.5-0.3,0.9-0.2,1.4
		c0.1,1,0.4,1.9,0.6,3C233-105.9,229.1-118.2,231.1-126.6z"/>
	<path class="st5" d="M265.5-135.9c0.4,0.9,0.6,1.4,1.1,2.4c0.5-0.9,0.8-1.5,1.1-2.1c0.1,0,0.2,0.1,0.3,0.1c0.4-0.6,0.9-1.2,1.1-1.8
		c0.2-0.9,0.3-2,1.5-1.8c1.1,0.2,2.1,0.8,3.1,1.3c-0.2,0.3-0.4,0.7-0.7,1c-0.5,0.5-1.3,0.8-1.6,1.4c-0.4,0.9,0.8,1,1,1.4
		c0.4,0.8,0.2,1.9,0.3,3.1c-1.5-0.4-2.6-1.1-3.5-0.9c-0.7,0.1-1.2,1.3-2,2.3c-0.6-0.2-1.7-0.7-2.8-1.1c-0.3-0.1-0.6-0.5-0.8-0.5
		c-1.9,0.2-2-1-1.7-2.6c-2.1,1.1-4,2-5.9,0.5c1.2-1.3,2.1-2.5,3.1-3.5c0.7-0.7,1.4-1.4,2.6-0.2c0.7,0.8,2.3,0.8,2.2,2.4
		c0,0.1,0.6,0.3,0.9,0.3c0.2,0,0.5-0.3,0.6-0.6C265.3-134.9,265.3-135.2,265.5-135.9z"/>
</g>
<g>
	<path class="st5" d="M125.4,223.4c0.9-2.5,2.6-3.6,5.3-3.4c1.3,0.1,2.5,0,4,0c0-0.5,0-0.9,0-1.4c0-2.5,0-5,0-7.6
		c0-2.8,1.7-4.5,4.6-4.5c5.4,0,10.7,0,16.1,0c0.5,0,1,0,1.6,0c0-2.7,0-5.3,0-8.1c-1.9,0-3.9,0-5.8,0c-2.9,0-4.6-1.6-4.6-4.6
		c0-3.1,0-6.3,0-9.4c0-2.8,1.7-4.5,4.6-4.5c5.4,0,10.7,0,16.1,0c2.9,0,4.5,1.7,4.6,4.5c0,3.1,0,6.3,0,9.4c0,3-1.7,4.6-4.6,4.6
		c-1.8,0-3.6,0-5.5,0c-0.1,0-0.2,0.1-0.3,0.1c0,2.6,0,5.1,0,7.9c0.5,0,1,0,1.5,0c5.4,0,10.8,0,16.2,0c2.8,0,4.5,1.7,4.6,4.5
		c0,2.9,0,5.9,0,8.9c1.7,0,3.3,0,4.8,0c2.6,0,4.4,1.7,4.4,4.2c0.1,3.3,0,6.6,0,9.9c0,2.3-1.4,3.5-3.3,4.3c-5.6,0-11.2,0-16.8,0
		c-2.8-1.2-3.4-2.1-3.4-5.2c0-2.8,0-5.7,0-8.5c0-3.2,1.6-4.7,4.8-4.8c1.7,0,3.4,0,5.3,0c0-2.1,0-4,0-6c0-2.8-0.5-3.3-3.2-3.3
		c-9.9,0-19.9,0-29.8,0c-1.8,0-3.5,0-5.3,0c-1.3,0-2.1,0.7-2.2,1.9c-0.1,2.4,0,4.8,0,7.2c0.2,0.1,0.3,0.2,0.4,0.2c1.7,0,3.5,0,5.2,0
		c2.9,0,4.5,1.6,4.5,4.5c0,2.9,0,5.9,0,8.8c0,3.1-0.6,4-3.4,5.2c-5.6,0-11.2,0-16.8,0c-1.7-0.6-2.8-1.7-3.4-3.4
		C125.4,231.2,125.4,227.3,125.4,223.4z"/>
</g>
<g>
	<path class="st4" d="M62.2,33.9c4.3-4.3,8.3-8.3,12.3-12.3c3.3-3.3,6.9-3.3,10.2-0.1c2.8,2.7,5.6,5.2,8.2,8c1.9,2,3.3,4.4,2.2,7.3
		c-0.4,1.1-1.1,2.1-1.9,2.9c-3.7,3.8-7.4,7.4-11.1,11.1c-0.4,0.4-0.8,0.8-1.5,1.6c1.2,1,2.4,2,3.5,3c3.4,3.3,6.7,6.6,10.1,10
		c1.7,1.7,1.7,2.4,0.1,4c-4.7,4.7-9.4,9.4-14.1,14.1c-1.6,1.6-2.4,1.6-3.9,0c-4-4-8.1-8-12.1-12.1c-0.4-0.4-0.7-0.9-1.1-1.4
		c-0.5,0.4-0.9,0.7-1.2,1c-4.1,4.1-8.2,8.3-12.3,12.3c-0.8,0.8-2.1,1.4-3.2,1.4c-4.6,0.2-9.1,0.1-13.7,0.1c-2.3,0-2.9-0.7-2.9-3
		c0-4.6,0-9.1,0-13.7c0-1.4,0.4-2.3,1.4-3.3c4-4,8-8,12-11.9c0.4-0.4,0.8-0.8,1.2-1.3c-0.4-0.5-0.8-0.9-1.2-1.3c-4-4-8-8-11.9-12
		c-1.9-1.9-1.9-2.5,0-4.4c4.6-4.6,9.2-9.2,13.7-13.7c1.7-1.7,2.4-1.7,4.2,0.1c3.9,3.9,7.9,7.9,11.8,11.8
		C61.3,32.7,61.7,33.2,62.2,33.9z M75.7,33.7C63.1,46.4,50.4,59.1,37.8,71.6c1.7,1.7,3.5,3.4,5,4.9C55.4,64,68.1,51.3,80.7,38.7
		C79.1,37.1,77.3,35.4,75.7,33.7z M51.2,27.8c-1.4,1.5-2.6,2.8-4,4.1c-0.4,0.4-1.1,0.4-1.7,0.6c0.2-0.6,0.1-1.4,0.5-1.8
		c1.2-1.4,2.6-2.7,3.8-3.9c-1.1-1.2-1.9-2.2-2.7-3c-4.3,4.3-8.5,8.4-12.4,12.4c4.1,4.1,8.3,8.3,12.3,12.3c4-4,8.2-8.2,12.2-12.2
		c-0.8-0.8-1.6-1.8-2.7-2.9c-0.8,0.9-1.4,1.7-2.2,2.4c-0.3,0.3-0.9,0.2-1.4,0.2c0.1-0.5,0-1.1,0.2-1.5c0.6-0.8,1.4-1.5,2.1-2.3
		C54,30.7,52.7,29.4,51.2,27.8z M78.1,79.8c4.1-4.1,8.3-8.3,12.6-12.5c-0.7-0.7-1.6-1.6-2.9-2.9c-1.4,1.5-2.6,3-3.9,4.3
		c-0.4,0.4-1.1,0.3-1.7,0.5c0.2-0.6,0.2-1.3,0.5-1.7c1.3-1.4,2.7-2.7,4-3.9c-1.5-1.6-2.8-3-4.4-4.8c-0.8,0.9-1.3,1.8-2,2.5
		c-0.3,0.3-0.9,0.2-1.4,0.3c0.1-0.5,0-1.1,0.2-1.4c0.6-0.8,1.4-1.5,2.1-2.3c-1.1-1.1-2-2.1-2.9-2.9c-4.2,4.3-8.4,8.4-12.4,12.5
		C69.9,71.6,74.1,75.7,78.1,79.8z M35.7,69.9c12.8-12.8,25.5-25.5,38.1-38.1c-0.5-0.6-1.2-1.4-1.7-2C59.3,42.6,46.6,55.3,33.8,68.1
		C34.4,68.7,35.2,69.4,35.7,69.9z M82.8,40.8C70.1,53.5,57.4,66.2,44.7,78.9c0.5,0.5,1.3,1.2,1.9,1.8c12.8-12.8,25.4-25.4,38.1-38.1
		C84,42,83.3,41.2,82.8,40.8z M86.6,41.6c1.4-1.5,2.9-3.1,4.2-4.6c1.1-1.2,1.2-2.8,0.2-3.8c-3.1-3.2-6.3-6.4-9.6-9.6
		c-0.9-0.9-2.2-1.2-3.2-0.3c-1.8,1.6-3.4,3.4-4.9,5C77.6,32.6,81.9,36.9,86.6,41.6z M43.3,81.1c-3.2-3.2-6.6-6.6-9.8-9.8
		c0,2.6,0,5.6,0,8.6c0,1,0.4,1.3,1.3,1.2C37.8,81,40.8,81.1,43.3,81.1z"/>
	<path class="st1" d="M75.7,33.7c1.6,1.7,3.4,3.4,5,5C68.1,51.3,55.4,64,42.8,76.6c-1.5-1.5-3.3-3.3-5-4.9
		C50.4,59.1,63.1,46.4,75.7,33.7z"/>
	<path class="st1" d="M51.2,27.8c1.5,1.6,2.8,2.9,4.2,4.4c-0.7,0.7-1.5,1.4-2.1,2.3c-0.3,0.4-0.2,1-0.2,1.5c0.5-0.1,1.1,0.1,1.4-0.2
		c0.8-0.7,1.4-1.5,2.2-2.4c1.1,1.2,1.9,2.1,2.7,2.9c-4.1,4.1-8.3,8.3-12.2,12.2c-4-4-8.2-8.2-12.3-12.3c3.9-3.9,8.1-8.1,12.4-12.4
		c0.8,0.9,1.7,1.9,2.7,3c-1.2,1.2-2.6,2.5-3.8,3.9c-0.4,0.4-0.3,1.2-0.5,1.8c0.6-0.2,1.3-0.2,1.7-0.6C48.6,30.7,49.8,29.3,51.2,27.8
		z"/>
	<path class="st1" d="M78.1,79.8c-4-4-8.2-8.2-12.2-12.3c4-4,8.2-8.2,12.4-12.5c0.9,0.9,1.8,1.8,2.9,2.9c-0.7,0.7-1.5,1.5-2.1,2.3
		c-0.3,0.3-0.2,0.9-0.2,1.4c0.5-0.1,1.1,0,1.4-0.3c0.7-0.7,1.3-1.5,2-2.5c1.6,1.8,2.9,3.2,4.4,4.8c-1.3,1.2-2.7,2.5-4,3.9
		c-0.4,0.4-0.4,1.1-0.5,1.7c0.6-0.1,1.3-0.1,1.7-0.5c1.3-1.3,2.6-2.8,3.9-4.3c1.3,1.3,2.1,2.1,2.9,2.9
		C86.4,71.5,82.2,75.6,78.1,79.8z"/>
	<path class="st1" d="M35.7,69.9c-0.5-0.5-1.2-1.2-1.8-1.8C46.6,55.3,59.3,42.6,72,29.9c0.5,0.6,1.2,1.4,1.7,2
		C61.2,44.4,48.5,57.1,35.7,69.9z"/>
	<path class="st1" d="M82.8,40.8c0.5,0.5,1.2,1.2,1.9,1.8C71.9,55.2,59.3,67.9,46.5,80.7c-0.6-0.6-1.3-1.3-1.9-1.8
		C57.4,66.2,70.1,53.5,82.8,40.8z"/>
	<path class="st1" d="M86.6,41.6c-4.7-4.6-8.9-8.9-13.3-13.3c1.6-1.6,3.2-3.4,4.9-5c1-0.9,2.3-0.6,3.2,0.3c3.2,3.2,6.4,6.3,9.6,9.6
		c1,1,0.9,2.6-0.2,3.8C89.4,38.5,88,40,86.6,41.6z"/>
	<path class="st1" d="M43.3,81.1c-2.5,0-5.5,0-8.5,0c-0.9,0-1.3-0.3-1.3-1.2c0-3,0-6,0-8.6C36.7,74.5,40.1,77.9,43.3,81.1z"/>
</g>
</svg>
